<?xml version="1.0" standalone="no"?>
<!DOCTYPE svg PUBLIC "-//W3C//DTD SVG 20010904//EN"
 "http://www.w3.org/TR/2001/REC-SVG-20010904/DTD/svg10.dtd">
<svg version="1.0" xmlns="http://www.w3.org/2000/svg"
 width="300.000000pt" height="210.000000pt" viewBox="0 0 300.000000 210.000000"
 preserveAspectRatio="xMidYMid meet">
<metadata>
Created by potrace 1.10, written by Peter Selinger 2001-2011
</metadata>
<g transform="translate(0.000000,210.000000) scale(0.100000,-0.100000)"
fill="#000000" stroke="none">
<path d="M1361 1436 c-17 -7 -45 -55 -102 -171 -44 -89 -89 -171 -102 -182
-23 -21 -143 -66 -209 -78 -23 -4 -38 -13 -38 -21 0 -11 20 -14 93 -14 152 0
198 22 285 135 29 39 71 92 93 118 l41 48 37 -33 c20 -19 64 -51 99 -72 74
-45 90 -67 65 -92 -71 -70 -456 -154 -709 -154 -114 0 -179 13 -381 77 -62 19
-118 33 -125 30 -20 -6 144 -82 262 -121 146 -48 240 -60 439 -53 166 5 238
16 536 76 77 16 173 34 213 41 87 14 103 33 84 98 -33 108 -120 181 -357 297
-151 74 -190 86 -224 71z m87 -46 c9 -5 64 -32 122 -60 58 -27 114 -55 125
-62 103 -67 137 -93 164 -125 35 -43 56 -102 41 -117 -18 -18 -590 -127 -655
-125 l-30 1 35 9 c19 5 49 11 65 13 37 6 131 31 168 45 15 6 27 9 27 7 0 -3
26 9 59 24 59 29 101 70 101 99 0 25 -58 78 -154 141 -84 55 -91 58 -115 45
-33 -17 -67 -49 -88 -83 -45 -71 -119 -147 -84 -85 6 10 36 72 66 137 31 66
60 125 66 133 13 15 62 17 87 3z"/>
<path d="M2075 1166 c-52 -23 -78 -60 -83 -119 l-4 -52 143 0 c89 -1 147 3
151 10 4 5 8 29 8 52 0 33 -6 48 -30 72 -48 47 -126 63 -185 37z m109 -35 c38
-15 66 -43 66 -68 0 -27 -13 -30 -125 -29 -82 1 -90 3 -93 21 -3 24 4 34 42
63 31 23 69 28 110 13z"/>
<path d="M470 911 c41 -59 143 -141 224 -180 125 -61 206 -75 405 -68 194 6
258 20 479 101 251 93 285 101 462 101 171 -1 294 -21 464 -76 49 -16 91 -28
93 -25 2 2 -15 15 -39 29 -288 167 -486 182 -1008 72 -500 -104 -638 -98
-1003 41 -49 19 -91 34 -94 34 -2 0 5 -13 17 -29z m1270 -51 c0 -5 -9 -10 -19
-10 -11 0 -23 -5 -26 -10 -4 -6 -10 -8 -15 -5 -5 3 -11 1 -15 -5 -4 -6 -11 -8
-16 -5 -5 4 -9 1 -9 -4 0 -6 -5 -11 -11 -11 -6 0 -25 -6 -42 -14 -64 -28 -185
-65 -275 -86 -162 -36 -476 -29 -517 11 -5 5 -19 9 -31 9 -13 0 -29 6 -36 13
-7 6 -19 13 -27 15 -21 4 -131 82 -131 92 0 21 33 13 165 -40 70 -28 181 -42
325 -41 113 0 298 24 332 42 10 5 27 9 38 9 20 0 157 25 220 40 50 11 90 12
90 0z"/>
</g>
</svg>
